/* XPM */
static char *_761035ba84e43d0dd56826a26d178deO1DhH9bJh5pNTF1H[] = {
/* columns rows colors chars-per-pixel */
"64 64 203 2 ",
"   c None",
".  c #020202",
"X  c #0C0C0C",
"o  c #120C0A",
"O  c #190D0B",
"+  c #1C0306",
"@  c #14130D",
"#  c #170E14",
"$  c #131313",
"%  c #171817",
"&  c #1C1C1C",
"*  c #1A171A",
"=  c #250403",
"-  c #2D0202",
";  c #2D030A",
":  c #250B0A",
">  c #330302",
",  c #3C0403",
"<  c #3A0C0B",
"1  c #320809",
"2  c #36130D",
"3  c #2E0D13",
"4  c #271312",
"5  c #2D1414",
"6  c #25141B",
"7  c #291D1C",
"8  c #381519",
"9  c #33191B",
"0  c #381415",
"q  c #2C211D",
"w  c #39211C",
"e  c #221B21",
"r  c #321824",
"t  c #232323",
"y  c #2B2223",
"u  c #2C2C2C",
"i  c #282728",
"p  c #302021",
"a  c #362C28",
"s  c #34382E",
"d  c #372733",
"f  c #343434",
"g  c #3B363B",
"h  c #3B3B3B",
"j  c #393A32",
"k  c #410204",
"l  c #4A0305",
"z  c #42050A",
"x  c #4E0D0B",
"c  c #490809",
"v  c #540203",
"b  c #5B0204",
"n  c #5E020B",
"m  c #50020A",
"M  c #48110C",
"N  c #470813",
"B  c #421015",
"V  c #501012",
"C  c #660202",
"Z  c #6C0201",
"A  c #690309",
"S  c #63090C",
"D  c #720100",
"F  c #7B0102",
"G  c #7D0802",
"H  c #77000E",
"J  c #7A000B",
"K  c #770813",
"L  c #401A20",
"P  c #49403A",
"I  c #433945",
"U  c #354248",
"Y  c #444444",
"T  c #4C4C4C",
"R  c #465146",
"E  c #58504D",
"W  c #53534B",
"Q  c #545454",
"!  c #585757",
"~  c #5A5A5A",
"^  c #5E675A",
"/  c #5E5C63",
"(  c #596764",
")  c #636363",
"_  c #646C69",
"`  c #6C6C6C",
"'  c #616960",
"]  c #73696F",
"[  c #67756D",
"{  c #6F7877",
"}  c #747474",
"|  c #737D7C",
" . c #7B7B7B",
".. c #840402",
"X. c #8C0202",
"o. c #8C050A",
"O. c #82000B",
"+. c #920104",
"@. c #9C0206",
"#. c #92020B",
"$. c #8F0310",
"%. c #900010",
"&. c #9F0613",
"*. c #A50306",
"=. c #AA030C",
"-. c #AD0801",
";. c #B40204",
":. c #BC0200",
">. c #B2020B",
",. c #B80308",
"<. c #B80311",
"1. c #C30302",
"2. c #CC0302",
"3. c #CB030A",
"4. c #D40304",
"5. c #DA0204",
"6. c #D3020B",
"7. c #DA0808",
"8. c #DE050D",
"9. c #CD0414",
"0. c #D60214",
"q. c #E30203",
"w. c #EC0304",
"e. c #E4030B",
"r. c #EB0409",
"t. c #EC0C05",
"y. c #F40303",
"u. c #FB0304",
"i. c #F30802",
"p. c #FC0905",
"a. c #F4030B",
"s. c #FB0309",
"d. c #EE0210",
"f. c #7E8682",
"g. c #7E8982",
"h. c #838484",
"j. c #8B858B",
"k. c #8C8C8C",
"l. c #968F8F",
"z. c #8B8C94",
"x. c #8D9491",
"c. c #949494",
"v. c #9C9C9C",
"b. c #9C9C95",
"n. c #A39A97",
"m. c #A1A39E",
"M. c #99A2A4",
"N. c #A5A5A5",
"B. c #ABABAB",
"V. c #A5A9A7",
"C. c #B7BAAE",
"Z. c #ABAEB1",
"A. c #AEAEB8",
"S. c #AAB4B1",
"D. c #B5B5B5",
"F. c #BDBAB7",
"G. c #BDBDBD",
"H. c #BCC0BA",
"J. c #C3C3C3",
"K. c #CACACA",
"L. c #C2C1C8",
"P. c #D2CBCC",
"I. c #D9CFC8",
"U. c #CAD2CE",
"Y. c #C5D0CB",
"T. c #CCD1D0",
"R. c #D4D3D4",
"E. c #D6DCDE",
"W. c #DCDCDC",
"Q. c #DCD8DA",
"!. c #DBE2DE",
"~. c #E0E0DD",
"^. c #DFE0E4",
"/. c #E3E3E3",
"(. c #E9E7E7",
"). c #E7E8E6",
"_. c #E5ECEC",
"`. c #ECECEC",
"'. c #EBEBE5",
"]. c #F0EFEC",
"[. c #ECF1EA",
"{. c #F3F2ED",
"}. c #F0EFF0",
"|. c #F9EFF3",
" X c #EEFCF7",
".X c #F4F4F4",
"XX c #FCF7F4",
"oX c #F6FBF6",
"OX c #FBFAF7",
"+X c #F5F6F9",
"@X c #FCF6FB",
"#X c #F6FCFB",
"$X c #FBFBFB",
"%X c #FAFAFA",
"&X c #F9F9F9",
"*X c #FAFDFA",
"=X c gray99",
"-X c #FDFDFD",
";X c #FCFDFD",
":X c white",
">X c #FEFEFE",
",X c #FCFDFE",
"<X c #FDFDFD",
/* pixels */
"                                                                                                                                ",
"                                                                                                                                ",
"                                                                                                                                ",
"                                                                                                                                ",
"                                                                                                                                ",
"                                                                                                                                ",
"                                                                                                                                ",
"                                                  7 4 : 7                                                                       ",
"                i t T Y u u                   u ; C -.1.O.3                                                                     ",
"              ~ & c././.K.N. .T g           5 n ;.e.y.y.e.X.5                                           t & & &                 ",
"              i ! /.:X:X:X+X`./.F.] h     : F 5.u.s.w.y.u.q.F d                                   & t t f Q Q u %               ",
"            } i B.%X%X%X%X%X%X:X&X'.K.) o A 8.y.y.y.s.y.y.u.5.z                               & i ) v.J.Q.).`.J.T &             ",
"            Q f Q.:X%X%X%X%X%X%X+X$X`._ 2 3.u.u.s.u.s.s.y.u.w.G o % y i t i i u i         & f  .J.`.+X:X:X:X=X+Xb.t             ",
"            h Y ).:X%X$X+X:X:X:X+X.XU.j Z e.q.2.<.9.w.y.s.y.y.1.2 [ P.R.U.K.J.Z.c.} ~ h T v.Q.`.%X:X%X%X%X%X%X:XK.t g           ",
"            i h T._.`.&X:X:X%X~.C.x.( # > $.C , , l *.y.u.u.a.q.S ^ ).$X,X:X$X%X+X`.)././.+X:X:X%X%X:X:X%X:X%X:X/.f i           ",
"            & % W ) f.S.!..XK.~ 7 8 N l - + = +.2.F k 6.u.u.u.y.#.a Y.$X+X%X&X$X:X:X:X:X:X%X%X%X:X%X:X%X$X:X%X:X/.g i           ",
"          d + , v x B w W k.Q : D 2.q.q.1.C ; J y.;.> ;.u.u.y.u.:.9 Z.XX@X&X&X$X:X:X:X:X:X:X:X:X%X%X:X%X:X:X%X:XW.f u           ",
"        U + o.0.e.7.5.1.K 6 o o.r.u.u.u.s.4.Z > -.X.c 2.p.s.s.y.:.5 z.[.#X,XXX,X:X:X:X:X:X:X:X:X%X%X:X:X%X%X%X:XR.i f           ",
"        e Z q.s.u.u.u.u.5., = 2.u.y.i.y.y.u.1., , v *.w.u.y.y.u.6.5 h.[.#X%X$X#X:X:X:X:X:X:X:X:X:X:X%X:X:X%X:X:XG.t Q           ",
"      k.6 @.y.y.y.y.i.q.;.> m 5.y.y.s.y.u.u.q.v = @.d.y.u.y.y.u.6.5 f.].%X$X,X,X:X:X:X:X:X:X:X:X:X:X%X%X:X:X.XQ.c.t }           ",
"      h.4 =.s.u.y.u.q.G m z v q.u.y.u.y.y.u.w.n 1 3.y.w.i.r.y.r.&.q m.|.$X%X#X$X:X:X:X:X:X:X:X:X:X:X%X+X:X%XD.Y f t             ",
"      j.3 *.t.y.u.s.<., @.#.k 2.u.y.y.u.y.u.5., O A +.X.X.%.+.F 8 ( W.$X&XoX$X&X:X:X:X:X:X:X:X:X:X:X:X%X%X:XK.h . &             ",
"      v.4 F w.u.y.y.#.k 4.4.N X.w.u.u.u.p.w...u ' P p 7 5 r r g | E.%X#XoXoX,X$X:X:X:X:X:X:X:X:X:X%X:X:X%X%X.Xv.% t             ",
"      G.7 v e.u.i.y.1., D :.A - ..5.a.w.4.X.B f.!.W.L.A.b.M.F.U.`.@X#X,X$XOX%X$X:X:X:X:X:X:X:X:X:X%X:X$X:X%X%X/.T t J.          ",
"      Q.g = 9.u.i.i.w.X.> l b b , v H K V a j.).:X:X:X%X+X+X=X:X:X$X:X:X:X:X:X:X:X:X:X:X:X:X:X:X:X:X:X:X:X:X:X+Xc.i k.          ",
"        / O o.a.s.y.y.q.2.3.6.,.z q s R g.K.`.,X:X:X:X:X:X:X:X:X:X:X:X:X:X:X:X:X:X:X:X:X:X:X:X:X:X:X:X:X:X:X:X:XQ.Y g           ",
"        j.$ , =.w.u.u.u.s.w.>.x E H.W.!.[.$X$X$X:X:X:X:X:X:X:X:X:X:X:X:X:X:X:X:X:X:X:X:X:X:X:X:X:X:X:X:X:X:X:X:X+Xk.i c.        ",
"        } # @ < ..6.q.5.>.b 9 _ R.%X,X:X%X@X%X,X:X:X:X:X:X:X:X:X:X:X:X:X:X:X:X:X:X:X:X:X:X:X:X:X:X:X:X:X:X:X:X:X:XK.u Y         ",
"        f & | ( y < x M 8 I z.^.,X%X%X+X&X#X#X#X:X:X:X:X:X:X:X:X:X:X:X:X:X:X:X:X:X:X:X:X:X:X:X:X:X:X:X:X:X:X:X$X:X/.T i         ",
"      l.& Q E./.m._ ( { n.I.[.,X,X%X%X%X$X%X+X%X:X:X:X:X:X:X:X:X:X:X:X:X:X:X:X:X:X:X:X:X:X:X:X:X:X:X:X:X:X:X:X:X:X`.} i         ",
"      T & V.%X@X{.`._._..X$X X#X#X%X:X,X%X$X%X$X:X:X:X:X:X:X:X:X:X:X:X:X:X:X:X:X:X:X:X:X:X:X:X:X:X:X:X:X:X:X:X:X%X%XN.i c.      ",
"      u t P.=X X+X:X$X$XoXoX%X$X%X@X$X&X%X#X#X:X:X:X:X:X:X:X:X:X:X:X:X:X:X:X:X:X:X:X:X:X:X:X:X:X:X:X:X:X:X:X:X:X%X:XJ.i  .      ",
"      t Y (.:X&X%X%X%X$X%X%X$X:X:X$X$X%X:X:X%X:X:X:X:X:X:X:X:X:X:X:X:X:X:X:X:X:X:X:X:X%X%X%X%X:X:X:X:X:X:X%X$X:X%X:XR.f )       ",
"      & T R.`..X%X%X%X:X:X:X%X%X%X$X:X%X:X%X%X:X:X:X:X:X:X:X:X:X:X:X:X:X:X:X:X:X:X:X%X:X:X:X:X%X%X:X%X%X%X:X:X:X+X%XW.Y Q       ",
"      . $ g ~  .D..X%X%X%X:X:X:X:X%X:X%X$X:X:X:X:X:X:X:X:X:X:X:X:X:X:X:X:X:X:X:X:X%X:X%X%X%X%X%X:X:X:X%X+X%X:X:X:X:X/.Y Y       ",
"      X i Y f i Q /.:X:X:X:X:X%X:X.X`.%X%X:X%X$X:X:X:X:X:X:X:X:X:X:X:X:X:X:X:X:X:X%X$X%X:X:X:X:X:X%X%X%X%X:X&X).Q.Q.F.f f       ",
"      t ~ R.Q.J.K..X:X%X%X:X:X:X.XV. .J.+X:X%X:X:X:X:X:X:X:X:X:X:X:X:X:X:X:X:X:X:X:X+X%X:X`.R./.%X:X%X%X:X:XW.` f u t X X T ` } ",
"      t Q `.:X:X:X%X%X%X%X%X%X%XG.u X T Q.:X%X:X:X:X:X:X:X:X:X:X:X:X:X:X:X:X:X:X%X:X%X%X.Xb.u ~ R.+X+X%X%X:X`.h.Q ~ f X % t t i ",
"      f f W.:X:X:X%X:X:X%X%X:X.Xc.% . & B.%X:X:X:X:X:X:X:X:X:X:X:X:X:X:X:X:X:X:X%X%X%X:XQ.Y . $ k.`.:X%X%X:X%X`.`.W. .&  .      ",
"      T & V.Q./.%X:X%X:X:X%X:X.Xc.$ . & B.%X:X:X:X:X:X:X:X:X:X:X:X:X:X:X:X:X:X:X:X%X%X:XJ.t . X _ `.:X:X:X:X%X:X:X`.( t G.      ",
"      u X i f } `.:X:X:X%X:X%X%XF.i . Y R.:X%X:X:X:X:X=X:X:X:X+X+X:X%X:X:X%X:X%X:X:X%X:XR.g . $ j..X:X:X:X:X+X.X:XW.f i         ",
"        . u h.D..X:X:X%X%X:X:X:X`.b.) D.+X:X%X:X:X:X%X%X:X).G.N.v.J.`.%X:X%X:X:X%X:X%X:X`.k.t Y K.%X%X%X:X%XR.v.G.v.t Q         ",
"        t f Q.:X%X%X:X$X%X%X:X:X:X.X`..X:X:X,X:X:X:X:X:X/.} h Y T h  .).:X%X%X%X:X:X:X:X:X).D.R.%X%X%X$X:X%XF.Y u t X ~         ",
"          i G.:X%X:X:X%X%X%X:X:X%X%X%X%X%X%X%X%X=X$X:X+Xc.f N.W.W.c.f V.+X%X:X:X:X%X:X:X:X:X%X%X%X%X%X%X:X%X.XR. .$ X t u Q v.  ",
"          t  .`.`.W..X:X%X%X%X+X%X:X%X%X:X%X:X:X:X:X:X+Xc.g D.`.`.B.g V.&X%X:X:X:X:X:X%X%X:X:X%X:X:X%X:X:X+X:X%Xk.& ) c.Q f Y   ",
"          f u k.} Q G.+X%X%X%X%X:X%X%X:X%X:X%X%X:X=X%X%XW.} T } } Q ` /.%X:X:X%X%X%X:X:X:X%X:X%X%X:X%X`.`.:X:XW.T i             ",
"            X % f h.).:X%X+X:X:X:X:X:X:X:X:X=X=X:X%X%X:X:X).J.v.v.K.).%X%X%X%X%X%X=X:X:X%X+X%X%X%X:X`.b. .G./.c.& Q             ",
"              $ k.`.:X:X:X:X:X:X:X:X:X:X%X%X:X:X:X%X%X:X:X:X:X.X.X%X:X%X:X:X%X:X:X:X:X%X%X%X%X:X:X:X+XB.~ Y ~ f t               ",
"              t T R.:X%X%X:X:X:X:X:X%X:X:X:X:X:X:X:X:X:X:X%X%X:X:X:X:X:X:X:X:X:X:X:X:X=X=X:X:X:X=X%X%X.XW.c.& . i               ",
"                & Q K.+X:X:X&X%X%X$X:X:X:X%X:X:X:X:X:X:X:X:X%X%X:X:X:X:X:X:X:X:X:X:X%X=X:X%X:X%X%X:X:X+XJ.~ &     i )           ",
"                  & h V./.+X:X%X%X%X%X:X:X:X:X%X:X:X:X:X:X:X%X%X:X:X:X:X:X%X%X%X:X%X:X%X%X%X+X=X:X+XW.c.f &         i h         ",
"                    & & T V./.+X$X:X%X%X%X%X%X%X$X$X:X:X:X:X%X:X:X:X:X:X:X:X:X:X:X:X%X+X+X:X:X+X/.V.T & i               g V.    ",
"                        $ & Q b.J./.`.%X:X%X:X:X:X:X%X%X%X:X%X%X:X:X%X%X%X$X:X:X%X:X:X:X%X`.R.V.~ t                             ",
"                            & & t T j.D.Q.).`..X+X%X:X:X:X:X:X:X:X:X:X:X:X:X:X:X+X`.`.Q.D.} f                                   ",
"                                    % & g ~ ` h.V.G.R.).`.`.`.`.`.`.`.`.`./.R.J.v. .~ f                                         ",
"                                              & & & i Y Q ) ` }  . .} _ ~ T u &                                                 ",
"                                                                                                                                ",
"                                                                                                                                ",
"                                                                                                                                ",
"                                                                                                                                ",
"                                                                                                                                ",
"                                                                                                                                ",
"                                                                                                                                ",
"                                                                                                                                "
};
